HIERARCHY
ROOT Hips
{
	OFFSET 0.00000 0.00000 0.00000
	CHANNELS 6 Xposition Yposition Zposition Zrotation Yrotation Xrotation 
	JOINT LHipJoint
	{
		OFFSET 0 0 0
		CHANNELS 3 Zrotation Yrotation Xrotation
		JOINT LeftHip
		{
			OFFSET 1.30186 -1.90722 0.65024
			CHANNELS 3 Zrotation Yrotation Xrotation
			JOINT LeftKnee
			{
				OFFSET 2.56413 -7.04489 0.00000
				CHANNELS 3 Zrotation Yrotation Xrotation
				JOINT LeftAnkle
				{
					OFFSET 2.79321 -7.67428 0.00000
					CHANNELS 3 Zrotation Yrotation Xrotation
					JOINT LeftToe
					{
						OFFSET 0.15723 -0.43198 2.08537
						CHANNELS 3 Zrotation Yrotation Xrotation
						End Site
						{
							OFFSET 0.00000 -0.00000 1.07411
						}
					}
				}
			}
		}
	}
	JOINT RHipJoint
	{
		OFFSET 0 0 0
		CHANNELS 3 Zrotation Yrotation Xrotation
		JOINT RightHip
		{
			OFFSET -1.28627 -1.90723 0.65024
			CHANNELS 3 Zrotation Yrotation Xrotation
			JOINT RightKnee
			{
				OFFSET -2.56567 -7.04913 0.00000
				CHANNELS 3 Zrotation Yrotation Xrotation
				JOINT RightAnkle
				{
					OFFSET -2.75597 -7.57198 0.00000
					CHANNELS 3 Zrotation Yrotation Xrotation
					JOINT RightToe
					{
						OFFSET -0.17500 -0.48081 2.22901
						CHANNELS 3 Zrotation Yrotation Xrotation
						End Site
						{
							OFFSET -0.00000 -0.00000 1.14762
						}
					}
				}
			}
		}
	}
	JOINT lowerback
	{
		OFFSET 0 0 0
		CHANNELS 3 Zrotation Yrotation Xrotation
		JOINT Chest
		{
			OFFSET -0.04522 2.07467 -0.16566
			CHANNELS 3 Zrotation Yrotation Xrotation
			JOINT Chest2
			{
				OFFSET -0.01178 2.08825 -0.05393
				CHANNELS 3 Zrotation Yrotation Xrotation
				JOINT lowerneck
				{
					OFFSET 0 0 0
					CHANNELS 3 Zrotation Yrotation Xrotation
					JOINT Neck
					{
						OFFSET -0.05182 1.80489 0.16014
						CHANNELS 3 Zrotation Yrotation Xrotation
						JOINT Head
						{
							OFFSET 0.14739 1.78840 -0.33342
							CHANNELS 3 Zrotation Yrotation Xrotation
							End Site
							{
								OFFSET 0.04364 1.83899 -0.13460
							}
						}
					}
				}
				JOINT LeftCollar
				{
					OFFSET 0 0 0
					CHANNELS 3 Zrotation Yrotation Xrotation
					JOINT LeftShoulder
					{
						OFFSET 3.01264 1.29090 -0.06579
CHANNELS 3 Zrotation Xrotation Yrotation
						JOINT LeftElbow
						{
OFFSET 0 -5.556800 0.000000
CHANNELS 3 Zrotation Xrotation Yrotation
							JOINT LeftWrist
							{
OFFSET 0 -3.639790 -0.000000
CHANNELS 3 Zrotation Xrotation Yrotation
								JOINT lhand
								{
									OFFSET 0 0 0
CHANNELS 3 Zrotation Xrotation Yrotation
									JOINT LFingers
									{
OFFSET 0 -0.569420 -0.000000
CHANNELS 3 Zrotation Xrotation Yrotation
										End Site
										{
OFFSET 0 -0.459080 -0.000000
										}
									}
								}
								JOINT LThumb
								{
OFFSET 0 0.000000 0.000000
CHANNELS 3 Zrotation Xrotation Yrotation
									End Site
									{
OFFSET 0 -0.466090 0.466090
									}
								}
							}
						}
					}
				}
				JOINT RightCollar
				{
					OFFSET 0 0 0
					CHANNELS 3 Zrotation Yrotation Xrotation
					JOINT RightShoulder
					{
						OFFSET -3.15796 1.37283 -0.36748
CHANNELS 3 Zrotation Xrotation Yrotation
						JOINT RightElbow
						{
OFFSET 0 -5.343390 0.000000
CHANNELS 3 Zrotation Xrotation Yrotation
							JOINT RightWrist
							{
OFFSET 0 -3.651010 -0.000000
CHANNELS 3 Zrotation Xrotation Yrotation
								JOINT rhand
								{
									OFFSET 0 0 0
CHANNELS 3 Zrotation Xrotation Yrotation
									JOINT RFingers
									{
OFFSET 0 -0.694250 -0.000000
CHANNELS 3 Zrotation Xrotation Yrotation
										End Site
										{
OFFSET 0 -0.559720 -0.000000
										}
									}
								}
								JOINT RThumb
								{
OFFSET 0 0.000000 0.000000
CHANNELS 3 Zrotation Xrotation Yrotation
									End Site
									{
OFFSET 0 -0.568270 0.568270
									}
								}
							}
						}
					}
				}
			}
		}
	}
}
MOTION
Frames: 9
Frame Time: 0.008333333333333333
7.178200 18.124000 -8.401300 5.423300 -9.344300 2.933000 0.000000 0.000000 0.000000 -15.098700 -17.670200 -22.407600 1.672200 8.147000 23.161400 0.008600 1.786800 -3.236900 0.080500 -1.829600 -5.035100 0.000000 0.000000 0.000000 18.580100 4.114200 6.638600 -0.628100 -5.071200 14.111900 0.098000 -26.331000 -36.423400 -1.577100 -7.923100 22.480900 -3.823000 2.010900 0.680700 -2.104800 2.649900 0.268300 -0.041600 1.323200 -0.179700 -2.097900 -1.081700 -9.539000 -0.378000 -1.069000 16.611300 0.135100 -0.679200 6.641100 -0.000000 -0.000000 0.000000 1.958500 8.311700 -5.361600 19.714000 -30.296300 5.386300 21.087500 -7.053300 -21.896300 0.000000 0.000000 0.000000 -7.125000 0.000000 0.000000 -8.041300 53.107000 1.612000 -0.000000 -0.000000 0.000000 0.613600 10.922600 4.598500 -14.775800 -23.832800 -3.134800 -13.667900 0.053500 -26.479200 0.000000 0.000000 0.000000 7.125000 0.000000 -0.000000 9.763200 3.175900 9.346100
7.239593 18.117496 -8.306716 5.921534 -8.853989 2.935337 0.000000 0.000000 0.000000 -16.063234 -17.570808 -22.456687 1.720198 8.257077 23.497771 0.013357 1.139702 -2.911317 0.019095 -0.890224 -2.446700 0.000000 0.000000 0.000000 17.748883 3.358631 6.647283 -0.642210 -5.127046 14.271091 0.207309 -26.530834 -36.110033 -1.262205 -7.121668 20.076322 -4.140400 1.982430 0.635093 -2.431870 2.603461 0.080108 -0.202434 1.303926 -0.344893 -2.435206 -1.463901 -9.326641 0.032264 -1.614104 16.397132 0.277965 -0.927574 6.546779 0.000000 0.000000 0.000000 2.296075 7.857089 -8.131597 20.931373 -31.747806 6.013964 24.396145 -6.628403 -21.269400 0.000000 0.000000 0.000000 -7.125000 0.000000 0.000000 -4.468838 53.070335 0.884937 0.000000 0.000000 0.000000 0.752805 10.852663 4.380989 -14.399831 -23.303501 -2.984483 -14.711254 0.672920 -27.828553 0.000000 0.000000 0.000000 7.125000 0.000000 0.000000 9.236329 1.678221 9.081736
7.297265 18.125689 -8.177260 5.554852 -8.641203 3.070024 0.000000 0.000000 0.000000 -16.023203 -17.667439 -22.423895 1.798317 8.432763 24.036493 0.030779 0.505524 -3.540679 0.024680 -1.012984 -2.784600 0.000000 0.000000 0.000000 17.764711 2.634717 6.841080 -0.631616 -5.085065 14.151289 0.305032 -26.398418 -35.378499 -1.048707 -6.512010 18.277502 -4.002324 1.957980 -0.129023 -2.311490 2.624526 0.224527 -0.123035 1.305044 0.231651 -2.603068 -1.688722 -9.988566 0.136041 -1.891521 16.484742 0.309485 -1.062677 6.697174 0.000000 0.000000 0.000000 2.109835 7.264321 -10.348943 22.094522 -33.083574 6.637430 26.356369 -8.859167 -16.005720 0.000000 0.000000 0.000000 -7.125000 0.000000 0.000000 -1.327294 47.726205 0.091244 0.000000 0.000000 0.000000 0.561897 9.950390 4.333157 -13.802380 -22.451488 -2.752223 -14.236818 1.643299 -27.747771 0.000000 0.000000 0.000000 7.125000 0.000000 0.000000 9.510907 1.829176 9.333184
7.372106 18.141072 -8.055349 6.199627 -8.794760 2.923754 0.000000 0.000000 0.000000 -17.213724 -17.362237 -22.151134 1.843146 8.531302 24.339912 0.038447 0.104548 -3.740593 0.000125 -0.057473 -0.157942 0.000000 0.000000 0.000000 16.389787 1.449563 6.506578 -0.677833 -5.264509 14.664465 0.160667 -25.252421 -34.565484 -0.801108 -5.711777 15.950726 -4.674963 1.966353 -0.184161 -2.542807 2.631339 0.029419 0.010619 1.312033 0.042929 -2.895564 -1.827634 -9.545165 0.472649 -2.105258 16.081933 0.452066 -1.154450 6.500870 0.000000 0.000000 0.000000 2.166909 7.345911 -11.861685 24.178198 -35.352114 7.809428 26.280239 -3.751402 -25.127247 0.000000 0.000000 0.000000 -7.125000 0.000000 0.000000 -3.743266 57.553387 1.154560 0.000000 0.000000 0.000000 0.512695 9.643763 4.002414 -13.401491 -21.872648 -2.600928 -14.736787 2.059498 -28.678706 0.000000 0.000000 0.000000 7.125000 0.000000 0.000000 9.288877 0.824924 9.277466
7.452209 18.164008 -7.926373 6.296038 -9.047145 2.655618 0.000000 0.000000 0.000000 -17.840318 -17.099598 -21.534657 1.861178 8.570688 24.461401 0.049297 -0.069095 -4.168117 0.003783 -0.373634 -1.026688 0.000000 0.000000 0.000000 15.586414 0.463173 6.354972 -0.742642 -5.504919 15.354469 0.474125 -25.111458 -32.452171 -0.414364 -4.132135 11.448686 -4.712763 1.959542 0.024259 -2.728313 2.598708 -0.143847 -0.170309 1.302288 -0.244013 -2.934717 -1.954798 -10.181028 0.854668 -2.322746 16.808408 0.553772 -1.232212 6.853430 0.000000 0.000000 0.000000 2.591581 7.574876 -14.146745 25.089987 -36.295639 8.343145 24.911572 -9.024573 -19.498872 0.000000 0.000000 0.000000 -7.125000 0.000000 0.000000 -3.461395 51.274384 0.535492 0.000000 0.000000 0.000000 0.492196 8.932230 4.092271 -13.058026 -21.372186 -2.474385 -13.935293 3.273513 -28.729133 0.000000 0.000000 0.000000 7.125000 0.000000 0.000000 9.762024 0.895664 9.751564
7.553976 18.192106 -7.796781 5.815165 -8.977660 2.507221 0.000000 0.000000 0.000000 -17.970628 -16.329567 -21.139196 1.871203 8.592587 24.528860 0.046992 -0.919209 -3.874670 0.001765 0.271616 0.746253 0.000000 0.000000 0.000000 15.335288 -0.612972 6.023785 -0.837871 -5.839127 16.318285 0.217166 -23.633578 -31.906992 -0.380480 -3.960650 10.966116 -4.301429 1.749963 -0.418365 -2.454038 2.360439 0.096027 -0.095546 1.173035 0.263074 -2.795928 -1.930575 -10.354206 0.468150 -2.238359 16.472888 0.413682 -1.213834 6.768437 0.000000 0.000000 0.000000 2.117210 7.188621 -14.989197 26.439800 -37.639472 9.155035 23.966353 -8.383409 -22.777970 0.000000 0.000000 0.000000 -7.125000 0.000000 0.000000 -5.388276 54.579192 1.271669 0.000000 0.000000 0.000000 0.135340 7.708848 3.888142 -12.883157 -21.115821 -2.411042 -14.172059 4.591533 -28.449115 0.000000 0.000000 0.000000 7.125000 0.000000 0.000000 9.601900 1.139398 9.544873
7.650919 18.220587 -7.650650 5.412058 -9.226250 2.273725 0.000000 0.000000 0.000000 -18.095582 -16.232031 -20.370010 1.909327 8.674571 24.782556 0.069317 -1.392717 -4.681924 0.001752 0.263670 0.724445 0.000000 0.000000 0.000000 14.874052 -1.765624 5.711986 -0.928691 -6.138984 17.188087 0.238130 -22.671445 -30.361088 -0.204090 -2.901815 8.005804 -3.866440 1.923969 -0.555816 -2.284957 2.590350 -0.089967 -0.162416 1.291978 0.153724 -2.899335 -2.080240 -9.562585 0.355900 -2.431185 16.122446 0.387227 -1.322495 6.521363 0.000000 0.000000 0.000000 1.706549 7.917339 -16.779181 28.113286 -39.220135 10.195296 22.861217 -9.857368 -22.964658 0.000000 0.000000 0.000000 -7.125000 0.000000 0.000000 -6.606165 54.554984 1.556668 0.000000 0.000000 0.000000 -0.287265 7.662879 4.676908 -13.207818 -21.590887 -2.529245 -13.894155 3.542999 -27.652396 0.000000 0.000000 0.000000 7.125000 0.000000 0.000000 9.707043 1.974088 9.505511
7.748632 18.253016 -7.559213 4.308895 -10.067211 2.281867 0.000000 0.000000 0.000000 -17.293591 -15.072693 -20.496092 1.961275 8.784992 25.125070 0.080913 -1.725757 -5.050134 0.000357 0.079399 0.218096 0.000000 0.000000 0.000000 15.562800 -1.222428 5.199848 -1.086290 -6.623913 18.605891 0.376981 -22.690418 -29.401225 -0.061127 -1.570870 4.321593 -3.265590 1.972237 -0.355910 -1.718565 2.638740 -0.160602 0.073844 1.319667 -0.031658 -3.267003 -1.959230 -9.449302 0.774758 -2.281990 15.966520 0.595704 -1.238349 6.458737 0.000000 0.000000 0.000000 0.994607 8.029994 -17.880032 30.110839 -40.986578 11.482838 24.001830 -8.860852 -26.331539 0.000000 0.000000 0.000000 -7.125000 0.000000 0.000000 -6.744895 58.299802 2.201163 0.000000 0.000000 0.000000 -1.054188 7.089967 6.919508 -14.002796 -22.738359 -2.829352 -13.549272 2.240980 -28.486506 0.000000 0.000000 0.000000 7.125000 0.000000 0.000000 9.969930 1.193761 9.912347
7.848924 18.273645 -7.361440 5.241171 -10.082270 1.551883 0.000000 0.000000 0.000000 -19.227584 -14.364453 -19.112932 1.928755 8.716067 24.911075 0.097044 -2.578383 -5.555567 0.004679 -0.434901 -1.194945 0.000000 0.000000 0.000000 13.386304 -3.018672 4.526256 -1.317703 -7.270167 20.518457 0.760410 -22.785503 -26.543791 -0.046166 1.381288 -3.798626 -4.377123 1.802975 -0.967311 -1.878705 2.468731 0.214060 0.557985 1.218184 0.660422 -2.893256 -2.011330 -9.322065 0.600577 -2.387803 15.546534 0.472642 -1.279629 6.297983 0.000000 0.000000 0.000000 0.999473 8.743440 -19.967495 33.440983 -43.664335 13.726235 25.149616 -12.824995 -24.289558 0.000000 0.000000 0.000000 -7.125000 0.000000 0.000000 -4.662198 56.418237 1.307309 0.000000 0.000000 0.000000 -1.479860 6.875265 10.531902 -15.869474 -25.341878 -3.590717 -12.616019 -2.037113 -27.464031 0.000000 0.000000 0.000000 7.125000 0.000000 0.000000 10.451400 2.340504 10.188948
